<?xml version="1.0" encoding="UTF-8"?>
<!DOCTYPE svg PUBLIC "-//W3C//DTD SVG 1.1//EN" "http://www.w3.org/Graphics/SVG/1.1/DTD/svg11.dtd">
<!-- Creator: CorelDRAW 2019 (64-Bit) -->
<svg xmlns="http://www.w3.org/2000/svg" xml:space="preserve" width="137.494mm" height="137.494mm" version="1.1" style="shape-rendering:geometricPrecision; text-rendering:geometricPrecision; image-rendering:optimizeQuality; fill-rule:evenodd; clip-rule:evenodd"
viewBox="0 0 13735.17 13735.16"
 xmlns:xlink="http://www.w3.org/1999/xlink"
 xmlns:xodm="http://www.corel.com/coreldraw/odm/2003">
 <defs>
  <style type="text/css">
   <![CDATA[
    .fil0 {fill:#FEFEFE;fill-rule:nonzero}
   ]]>
  </style>
 </defs>
 <g id="Layer_x0020_1">
  <metadata id="CorelCorpID_0Corel-Layer"/>
  <g id="_2973237459120">
   <path class="fil0" d="M4410.9 6169.33l-642.68 0c-183.7,0 -350.56,75.01 -471.54,196 -120.99,120.98 -196.01,287.85 -196.01,471.55l0 61.41c0,302.66 -123.33,577.32 -322.26,776.24 -198.93,198.92 -473.6,322.26 -776.24,322.26l-733.82 0 0 -430.95 733.82 0c183.69,0 350.57,-75.01 471.55,-196 120.98,-120.98 196,-287.85 196,-471.55l0 -61.41c0,-302.65 123.34,-577.32 322.27,-776.24 198.92,-198.93 473.58,-322.26 776.23,-322.26l642.68 0 0 430.95z"/>
   <path class="fil0" d="M5888.92 6169.33l-339.32 0c-190.1,0 -362.79,77.63 -488,202.83 -125.21,125.22 -202.84,297.9 -202.84,488l0 14.83c0,190.1 77.63,362.79 202.83,488 125.21,125.2 297.9,202.83 488.01,202.83l339.32 0 0 430.95 -339.32 0c-309.07,0 -589.56,-125.95 -792.71,-329.09 -203.14,-203.15 -329.09,-483.64 -329.09,-792.7l0 -14.83c0,-309.05 125.95,-589.54 329.1,-792.69 203.16,-203.16 483.65,-329.1 792.7,-329.1l339.32 0 0 430.95z"/>
   <path class="fil0" d="M6194.13 7991.22l0 -1317.39c0,-257.74 105.02,-491.65 274.42,-661.04 169.38,-169.38 403.28,-274.41 661.03,-274.41l0 430.95c-138.8,0 -264.9,56.7 -356.34,148.15 -91.46,91.46 -148.16,217.55 -148.16,356.35l0 1317.39 -430.95 0z"/>
   <polygon class="fil0" points="8685.56,7991.22 8685.56,6378.68 9116.51,6378.68 9116.51,7991.22 "/>
   <polygon class="fil0" points="6831.76,7561.85 7634.08,7561.85 7634.08,7992.8 6831.76,7992.8 "/>
   <path class="fil0" d="M7840.77 7991.22l0 -1317.39c0,-138.8 -56.7,-264.9 -148.16,-356.35 -91.45,-91.45 -217.55,-148.15 -356.35,-148.15l0 -430.95c257.75,0 491.65,105.01 661.04,274.41 169.39,169.39 274.42,403.28 274.42,661.04l0 1317.39 -430.95 0z"/>
   <path class="fil0" d="M8679.47 5738.38l642.67 0c302.66,0 577.32,123.32 776.24,322.26 198.92,198.92 322.26,473.6 322.26,776.24l0 61.41c0,183.7 75.01,350.57 196,471.55 120.98,120.98 287.85,196 471.55,196l733.82 0 0 430.95 -733.82 0c-302.65,0 -577.31,-123.33 -776.24,-322.26 -198.92,-198.92 -322.26,-473.59 -322.26,-776.24l0 -61.41c0,-183.7 -75.01,-350.57 -196,-471.55 -120.98,-120.98 -287.85,-196 -471.55,-196l-642.67 0 0 -430.95z"/>
   <g>
    <path class="fil0" d="M11649.36 9143.79c0,125.96 -164.81,80.48 -482.87,80.48 0,-476.52 -17.7,-456.06 -456.06,-456.06l0 -482.87c271.15,0 560.63,-19.45 767.99,251.42 118.85,155.25 170.93,344.61 170.93,607.03z"/>
    <polygon class="fil0" points="8715.98,13245.4 8715.98,13735.16 8211.56,13735.16 8211.56,13245.4 "/>
    <path class="fil0" d="M7770.29 13245.4l0 489.76 -689.38 0 0 -489.76 689.38 0zm-902.7 489.76l-456.05 0 0 -489.76 3.21 0c-3.34,-385.84 -58.85,-422.34 -459.26,-422.34l0 -456.05 295.09 0c304.65,0 617.01,316.45 617.01,617.01l0 261.38 0 489.76z"/>
    <polygon class="fil0" points="8218.51,8279.11 8235.74,8279.11 8691.8,8279.11 10442.81,8279.11 10442.81,8728.26 8691.8,8728.26 8691.8,9494.56 8218.51,9494.56 "/>
    <path class="fil0" d="M912.11 8279.11l0 1444.38 456.06 0c0,-663.65 -6.91,-1124.27 -6.48,-1444.38l-449.57 0z"/>
    <polygon class="fil0" points="0.01,8433.79 456.06,8433.79 456.06,7753.66 0.01,7753.66 "/>
    <polygon class="fil0" points="6411.54,8969.7 6867.59,8969.7 6867.59,8486.82 6411.54,8486.82 "/>
    <polygon class="fil0" points="7323.64,10303.75 7779.69,10303.75 7779.69,8279.11 7323.64,8279.11 "/>
    <polygon class="fil0" points="6411.54,11910.97 6867.59,11910.97 6867.59,11428.09 6411.54,11428.09 "/>
    <polygon class="fil0" points="6411.56,10998.86 7758.77,10998.86 7758.77,10515.98 6411.54,10515.99 "/>
    <polygon class="fil0" points="4345.9,10224.67 4801.95,10224.67 4801.95,9741.79 4345.9,9741.79 "/>
    <path class="fil0" d="M1824.21 10230.8l402.4 0c61.81,0 80.47,-18.66 80.46,-80.49l0.01 -402.39 -482.87 0 0 482.88z"/>
    <path class="fil0" d="M3192.36 9345.27c0,119.19 125.21,80.48 402.39,80.48 125.96,0 80.49,-164.8 80.49,-482.87l-482.88 0 0 402.39z"/>
    <polygon class="fil0" points="4748.13,13735.16 5730.46,13735.16 5730.46,13279.12 4748.13,13279.12 "/>
    <polygon class="fil0" points="1824.21,12823.06 2977.75,12823.07 2977.75,12367.01 1824.2,12367.01 "/>
    <polygon class="fil0" points="2736.3,10224.67 3889.85,10224.67 3889.85,9741.79 2736.3,9741.79 "/>
    <path class="fil0" d="M5016.57 9345.27c0,125.95 164.8,80.48 482.87,80.48 0,-476.52 17.7,-456.05 456.05,-456.05l0 -482.88c-271.15,0 -560.62,-19.45 -767.98,251.42 -118.85,155.25 -170.93,344.6 -170.93,607.03z"/>
    <path class="fil0" d="M1824.21 11910.97l482.87 0 0 -1314.51c0,-61.81 -18.66,-80.48 -80.47,-80.48l-402.4 0 0 1394.98z"/>
    <polygon class="fil0" points="4345.89,10998.86 5955.48,10998.86 5955.48,10515.98 4345.9,10515.98 "/>
    <path class="fil0" d="M6411.54 9427.55c0,167.41 -76.77,295.07 -241.44,295.09l-912.09 0 0 482.87c437.94,0 1106.44,72.31 1362.31,-166.79 282.89,-264.38 247.27,-420.56 247.27,-772.14l-456.05 0 0 160.96z"/>
    <path class="fil0" d="M2279.5 8609.36c0.57,28.27 0.77,58.87 0.77,92.06 -0.01,281.24 -269.88,241.44 -456.06,241.45l0 482.87c586.45,0 933.16,-200.18 938.8,-816.38l-483.51 0z"/>
    <path class="fil0" d="M3766.93 13279.12l-375.58 0 0 456.05 508 0c234.06,-19.06 428.24,-96.47 574.45,-366.19 242.64,-447.61 -214.91,-545.91 768.57,-545.91l0 -456.05c-483.58,0 -840.21,-80.56 -1082.45,366.18 -139.74,257.69 16.96,545.92 -393,545.92z"/>
    <path class="fil0" d="M4104.46 8406.34l0 938.93c0,125.95 164.8,80.48 482.87,80.48l0 -1146.63 -478.38 0c-3.03,40.14 -4.49,82.45 -4.49,127.23z"/>
    <path class="fil0" d="M0.01 9666.03c0,246.96 194.32,452.75 366.18,545.92 255.14,138.31 545.92,-17.16 545.92,366.18l0 858.45 456.05 0 0 -992.59c0,-254.69 -189.62,-450.18 -366.19,-545.92 -490.07,-265.75 -545.91,269.76 -545.91,-983.19l-456.05 0 0 751.15z"/>
    <path class="fil0" d="M2736.3 11213.47c0,362.11 317.04,697.5 670.66,697.5l2548.51 0 0.01 -482.88 -2575.34 0.01c-183.07,-0.01 -258.94,-429.23 53.65,-429.23l456.05 0 0 -482.88c-364.69,0 -648.26,-39.52 -917.35,182.54 -111.33,91.87 -236.2,316.63 -236.2,514.95z"/>
    <polygon class="fil0" points="7080.92,12239.3 7570.67,12239.3 7570.67,12965.69 7080.92,12965.69 7080.92,12921.12 "/>
    <polygon class="fil0" points="7003.28,2209.65 7003.28,3449.83 6520.4,3449.83 6520.4,2209.65 6520.4,2042.03 6520.4,1968.21 7003.28,1968.21 7003.28,2042.03 "/>
    <polygon class="fil0" points="9617.3,456.05 10073.36,456.05 10073.34,0 9617.3,0 "/>
    <polygon class="fil0" points="12367.01,1368.15 12823.07,1368.15 12823.07,912.1 12367.01,912.1 "/>
    <polygon class="fil0" points="4727.61,456.06 5210.48,456.05 5210.48,0 4727.61,0 "/>
    <polygon class="fil0" points="6992.95,456.05 7678.41,456.05 7678.41,0 6992.95,0 "/>
    <polygon class="fil0" points="6551.8,1368.15 7034.68,1368.15 7034.68,912.1 6551.8,912.1 "/>
    <path class="fil0" d="M11428.1 3138.69c0,61.82 18.66,80.49 80.48,80.49l402.4 0 0 -482.89 -482.88 0 0 402.4z"/>
    <polygon class="fil0" points="9432.59,3219.18 9915.47,3219.18 9915.47,2736.29 9432.59,2736.29 "/>
    <polygon class="fil0" points="5639.71,456.05 6578.64,456.05 6578.63,0 5639.7,0 "/>
    <path class="fil0" d="M7961.1 4325.45l0 -435.61 -482.87 0 0 208.37c0,125.15 102.08,227.23 227.22,227.23l255.64 0z"/>
    <polygon class="fil0" points="10445.96,5078.02 10928.84,5078.02 10928.84,2736.29 10445.96,2736.29 "/>
    <path class="fil0" d="M7478.23 3433.79l482.88 0c102.99,-442.09 697.49,-42.51 697.49,-295.09l0 -402.4c-338.12,0 -714.89,-46.14 -957.22,196.33 -208.65,208.78 -173.44,397.57 -223.15,501.17z"/>
    <path class="fil0" d="M11882.49 4325.45c18.35,-55.28 28.49,-111.78 28.49,-167.35l-0.01 -509.71c-608.36,0 -474.26,-58.52 -481.09,431 -1.68,119.63 -37.08,208.1 -127.12,246.05l579.73 0z"/>
    <path class="fil0" d="M9617.3 1475.45c0,446.79 -231.1,348.76 -912.1,348.76l0 482.87c406.69,0 826.67,51.8 1104.42,-156.43 354.78,-265.98 263.73,-703.73 263.73,-1238.55l-456.05 0 0 563.35z"/>
    <path class="fil0" d="M4727.61 1609.6l0 697.48c583.51,0 490.66,119.94 482.04,-591.03 -1.77,-144.87 -16.42,-205.12 71.58,-277.15 133.57,-109.37 613.65,-70.75 841.36,-70.75l0 -456.05 -751.13 0c-339.69,0 -643.84,343.76 -643.84,697.5z"/>
    <path class="fil0" d="M13047.16 2277.4c-82.63,13.35 -181.79,21.49 -288.11,72.95 -185.19,89.63 -392.03,288.77 -392.03,546.91l-0.01 992.58 456.07 0 0 -885.28c0,-137.21 71.24,-214.68 187.78,-241.45 12.51,-2.87 24.59,-5.37 36.31,-7.6l0 -478.11z"/>
    <path class="fil0" d="M10757.43 1555.94c0,251.63 47.66,420.01 248.65,582.96 268.62,217.75 680.37,168.19 1065.84,168.19 125.96,0 80.48,-164.81 80.48,-482.87 -414.92,-0.02 -1008.73,98.28 -917.67,-274.98 56.36,-231.04 404.71,-181.07 676.24,-181.07l0 -456.05 -509.71 0c-321.63,0 -643.83,321.62 -643.83,643.83z"/>
    <path class="fil0" d="M10701.8 456.05l1662.83 0 0 0.01 2.54 -0.01 587.65 0c16.32,0 31.78,0.64 46.57,1.76 81.94,11.76 147.67,35.18 194.31,79.27 44.07,46.66 67.52,112.37 79.27,194.32 1.13,14.79 1.77,30.24 1.77,46.57l0 587.65 -0.01 2.54 0.01 0 0 1662.83 456.05 0 0 -1662.83 0 -602.68 0 -120.98c-6.72,-58.34 -17.05,-114.47 -32.4,-167.9 -8.16,-39.05 -17.74,-70.73 -28.97,-93.29 -23.61,-47.42 -49.68,-89.25 -77.98,-126.18l-2.68 -3.5 -1.11 -1.43c-13.95,-18.04 -29.1,-35.51 -45.58,-52.37l-0.43 -0.44 -5.1 -5.13c-1.7,-1.71 -3.4,-3.42 -5.13,-5.1l-0.44 -0.43c-16.86,-16.47 -34.32,-31.64 -52.37,-45.58l-1.43 -1.11 -3.5 -2.69c-36.93,-28.3 -78.76,-54.37 -126.18,-77.97 -22.57,-11.23 -54.24,-20.81 -93.29,-28.97 -53.42,-15.34 -109.56,-25.67 -167.9,-32.4l-120.98 0 -602.68 0 -1662.83 0 0 456.05z"/>
    <path class="fil0" d="M8073.93 456.05c222.6,0 456.05,-28.01 456.05,241.44 0,174.21 -107.02,197.38 -266.58,216.3 -731.23,86.66 -645.51,797.3 -645.51,1312.83 0,125.94 164.8,80.47 482.88,80.47 0,-564.99 -87.88,-864.24 201.84,-924.86 192.13,-40.2 418.89,-32.8 599.02,-313.09 289.28,-450.09 -13.46,-1069.13 -559.43,-1069.13l-268.26 0 0 456.05z"/>
    <path class="fil0" d="M3541.42 469.96l-2902.72 0c-52.91,0 -102.87,21.21 -140.21,58.56 -37.35,37.35 -58.57,87.32 -58.57,140.22l0 2902.72c0,52.92 21.22,102.87 58.57,140.22 37.34,37.34 87.31,58.57 140.21,58.57l2902.72 0c52.92,0 102.87,-21.23 140.22,-58.57 37.35,-37.35 58.57,-87.31 58.57,-140.22l0 -2902.72c0,-52.92 -21.22,-102.87 -58.57,-140.22 -37.35,-37.35 -87.31,-58.56 -140.22,-58.56zm-610.47 796.41l-1681.78 0c-3.45,0 -6.48,1.55 -8.89,3.95 -2.41,2.42 -3.96,5.45 -3.96,8.89l0 1681.79c0,3.44 1.55,6.47 3.96,8.89 2.41,2.4 5.44,3.95 8.89,3.95l1681.78 0c3.43,0 6.48,-1.56 8.88,-3.96 2.4,-2.41 3.95,-5.45 3.95,-8.88l0 -1681.79c0,-3.43 -1.55,-6.47 -3.95,-8.88 -2.4,-2.4 -5.45,-3.96 -8.88,-3.96zm-1681.78 -459.53l1681.78 0c125.53,0 245.09,49.87 333.79,138.58 88.71,88.71 138.58,208.26 138.58,333.79l0 1681.79c0,125.53 -49.87,245.09 -138.58,333.79 -88.71,88.71 -208.26,138.58 -333.79,138.58l-1681.78 0c-125.54,0 -245.09,-49.86 -333.8,-138.57 -88.72,-88.72 -138.58,-208.27 -138.58,-333.8l0 -1681.79c0,-125.53 49.86,-245.09 138.58,-333.79 88.71,-88.72 208.26,-138.58 333.8,-138.58zm-610.48 -776.79l2902.72 0c169.77,0 331.3,67.48 451.26,187.44 119.96,119.97 187.44,281.5 187.44,451.26l0 2902.72c0,169.77 -67.48,331.3 -187.44,451.26 -119.96,119.96 -281.51,187.44 -451.26,187.44l-2902.72 0c-169.76,0 -331.3,-67.48 -451.26,-187.44 -119.96,-119.97 -187.44,-281.5 -187.44,-451.26l0 -2902.72c0,-169.75 67.49,-331.31 187.44,-451.26 119.97,-119.96 281.5,-187.44 451.26,-187.44z"/>
    <path class="fil0" d="M13096.48 9994.95l-2902.72 0c-52.92,0 -102.87,21.22 -140.22,58.57 -37.34,37.35 -58.57,87.31 -58.57,140.22l0 2902.72c0,52.91 21.23,102.87 58.57,140.21 37.35,37.35 87.31,58.57 140.22,58.57l2902.72 0c52.91,0 102.87,-21.22 140.21,-58.57 37.36,-37.34 58.57,-87.31 58.57,-140.21l0 -2902.72c0,-52.92 -21.21,-102.87 -58.57,-140.22 -37.34,-37.35 -87.3,-58.57 -140.21,-58.57zm-610.48 796.42l-1681.78 0c-3.44,0 -6.48,1.55 -8.89,3.95 -2.4,2.41 -3.95,5.45 -3.95,8.89l0 1681.78c0,3.45 1.55,6.48 3.95,8.89 2.41,2.41 5.45,3.96 8.89,3.96l1681.78 0c3.44,0 6.48,-1.56 8.89,-3.96 2.4,-2.41 3.95,-5.45 3.95,-8.89l0 -1681.78c0,-3.43 -1.55,-6.48 -3.95,-8.88 -2.41,-2.4 -5.45,-3.96 -8.89,-3.96zm-1681.78 -459.53l1681.78 0c125.54,0 245.09,49.87 333.8,138.58 88.71,88.71 138.58,208.26 138.58,333.79l0 1681.78c0,125.54 -49.87,245.09 -138.58,333.8 -88.72,88.71 -208.26,138.58 -333.8,138.58l-1681.78 0c-125.53,0 -245.09,-49.86 -333.79,-138.57 -88.72,-88.72 -138.58,-208.27 -138.58,-333.81l0 -1681.78c0,-125.53 49.86,-245.09 138.58,-333.79 88.71,-88.72 208.26,-138.58 333.79,-138.58zm-610.47 -776.79l2902.72 0c169.76,0 331.3,67.48 451.26,187.44 119.96,119.97 187.44,281.49 187.44,451.26l0 2902.72c0,169.76 -67.48,331.3 -187.44,451.26 -119.96,119.95 -281.51,187.44 -451.26,187.44l-2902.72 0c-169.76,0 -331.3,-67.48 -451.26,-187.44 -119.96,-119.97 -187.44,-281.5 -187.44,-451.26l0 -2902.72c0,-169.75 67.48,-331.31 187.44,-451.26 119.97,-119.96 281.49,-187.44 451.26,-187.44z"/>
    <polygon class="fil0" points="11882.41,8966.48 12338.46,8966.48 12338.46,8483.6 11882.41,8483.6 "/>
    <polygon class="fil0" points="13279.13,8933.23 13735.17,8933.23 13735.17,6027.83 13279.13,6027.83 "/>
    <polygon class="fil0" points="12576.61,8966.48 13032.66,8966.48 13032.66,8483.6 12576.61,8483.6 "/>
    <path class="fil0" d="M3030.99 13279.12l-1662.83 0 0 -0.01 -2.54 0.01 -587.65 0c-16.33,0 -31.78,-0.64 -46.57,-1.77 -81.94,-11.75 -147.67,-35.18 -194.32,-79.27 -44.06,-46.65 -67.52,-112.36 -79.27,-194.31 -1.12,-14.79 -1.76,-30.25 -1.76,-46.57l0 -587.65 0.01 -2.54 -0.01 0 0 -1662.84 -456.05 0 0 1662.84 0 602.68 0 120.98c6.72,58.33 17.05,114.46 32.4,167.9 8.16,39.05 17.74,70.73 28.97,93.29 23.61,47.41 49.67,89.25 77.97,126.17l2.69 3.51 1.11 1.43c13.95,18.03 29.1,35.51 45.58,52.37l0.43 0.44 5.1 5.13c1.7,1.71 3.4,3.41 5.13,5.09l0.44 0.44c16.86,16.47 34.32,31.63 52.37,45.58l1.43 1.11 3.5 2.68c36.93,28.31 78.76,54.37 126.18,77.97 22.57,11.24 54.24,20.82 93.29,28.98 53.42,15.34 109.56,25.67 167.9,32.4l120.98 0 602.68 0 1662.83 0 0 -456.05z"/>
    <path class="fil0" d="M5167.74 2793.42l0 1574.96c0,190.1 77.64,362.78 202.85,487.99 125.21,125.22 297.89,202.85 487.99,202.85l14.82 0c190.11,0 362.8,-77.63 488.01,-202.83 125.2,-125.21 202.83,-297.9 202.83,-488.01l0 -339.32 430.95 0 0 339.32c0,309.07 -125.96,589.56 -329.09,792.71 -203.15,203.13 -483.64,329.09 -792.71,329.09l-14.82 0c-309.06,0 -589.54,-125.96 -792.69,-329.11 -203.16,-203.15 -329.11,-483.63 -329.11,-792.69l0 -1574.96 430.95 0z"/>
    <polygon class="fil0" points="8235.75,12985.75 8691.8,12985.75 8691.8,11879.83 8235.75,11879.83 "/>
    <path class="fil0" d="M9001.01 10972.76c-167.41,0 -295.07,-76.77 -295.08,-241.44l0 -912.09 -482.88 0c0,437.94 -72.31,1106.44 166.8,1362.3 264.37,282.9 420.55,247.28 772.13,247.28l0 -456.05 -160.96 0z"/>
    <path class="fil0" d="M0.01 6399.63c0,-246.96 194.32,-452.75 366.18,-545.93 255.14,-138.3 545.92,17.17 545.92,-366.17l0 -858.45 456.05 0 0 992.59c0,254.68 -189.62,450.18 -366.19,545.92 -490.07,265.74 -545.91,-269.77 -545.91,983.18l-456.05 0 0 -751.14z"/>
    <polygon class="fil0" points="0.01,5320.78 456.06,5320.78 456.06,4640.65 0.01,4640.65 "/>
    <path class="fil0" d="M13719.6 5064.59c0,251.63 -47.66,420.02 -248.65,582.97 -268.62,217.74 -680.38,168.18 -1065.84,168.18 -125.96,0 -80.48,-164.81 -80.48,-482.87 414.92,-0.01 1008.73,98.28 917.67,-274.98 -56.36,-231.03 -404.72,-181.07 -676.24,-181.07l0 -456.05 509.71 0c321.63,0 643.83,321.62 643.83,643.83z"/>
    <polygon class="fil0" points="13276.73,4058.89 13732.78,4058.89 13732.78,3378.76 13276.73,3378.76 "/>
    <polygon class="fil0" points="923.84,12706.66 1379.9,12706.66 1379.9,12026.53 923.84,12026.53 "/>
    <polygon class="fil0" points="11140.07,6276.45 11583.95,6276.45 11583.95,5831.81 11140.07,5831.81 "/>
    <polygon class="fil0" points="11687.39,6276.45 12131.27,6276.45 12131.27,5831.81 11687.39,5831.81 "/>
    <path class="fil0" d="M1806.74 4680.02c0,-125.95 164.81,-80.48 482.87,-80.48 0,476.52 17.7,456.06 456.06,456.06l0 482.87c-271.15,0 -560.63,19.45 -767.99,-251.42 -118.85,-155.24 -170.93,-344.6 -170.93,-607.03z"/>
    <polygon class="fil0" points="4316.17,5544.69 3013.28,5544.69 3013.28,5095.56 4316.17,5095.56 "/>
    <path class="fil0" d="M9473.88 4211.64c0,446.78 -231.1,348.75 -912.1,348.75l0 482.87c406.69,0 826.68,51.81 1104.42,-156.43 354.79,-265.98 263.74,-703.73 263.74,-1238.55l-456.06 0 0 563.36z"/>
   </g>
   <path class="fil0" d="M11010.13 11654.25c0,-65.3 12.34,-122.63 37.02,-171.99 24.67,-49.35 58.28,-87.32 100.8,-113.9 42.53,-26.57 89.98,-39.86 142.37,-39.86 44.8,0 84.09,9.11 117.89,27.33 33.78,18.23 59.8,42.15 78.02,71.76l0 -89.98 194.77 0 0 635.55 -194.77 0 0 -89.98c-18.99,29.61 -45.37,53.53 -79.16,71.76 -33.78,18.22 -73.08,27.33 -117.89,27.33 -51.64,0 -98.71,-13.48 -141.23,-40.43 -42.52,-26.96 -76.12,-65.3 -100.8,-115.04 -24.68,-49.74 -37.02,-107.25 -37.02,-172.55zm476.1 1.14c0,-48.6 -13.49,-86.94 -40.43,-115.04 -26.96,-28.1 -59.8,-42.14 -98.53,-42.14 -38.72,0 -71.57,13.85 -98.52,41.57 -26.96,27.71 -40.44,65.87 -40.44,114.47 0,48.59 13.48,87.13 40.44,115.6 26.95,28.48 59.8,42.72 98.52,42.72 38.73,0 71.57,-14.05 98.53,-42.15 26.94,-28.09 40.43,-66.44 40.43,-115.03zm518.23 157.18l275.63 0 0 160.59 -493.18 0 0 -154.9 264.25 -320.05 -261.97 0 0 -160.6 485.21 0 0 154.9 -269.94 320.06z"/>
  </g>
 </g>
</svg>
